# xmcd
#
# Track frame offsets:
#	150
#	22597
#	42095
#	61339
#	83965
#	99962
#	121110
#	139482
#	159892
#	178125
#	197325
#
# Disc length: 2887 seconds
#
# Revision: 2
# Processed by: cddbd v1.5.2PL0 Copyright (c) Steve Scherf et al.
# Submitted via: EasyCDDAExtractor 15.3.0.1
#
DISCID=7e0b450b
DTITLE=Myriam Hernandez - Todo El Amor
DYEAR=1998
DGENRE=Latin
TTITLE0=Huele A Peligro
TTITLE1=Me Vas A Querer
TTITLE2=Deseo
TTITLE3=La Fuerza Del Amor
TTITLE4=Amor Secreto
TTITLE5=No Puedo Olvidarte
TTITLE6=El Hombre Equivocado
TTITLE7=Ya No Podras
TTITLE8=Me Traicionas
TTITLE9=De Soledad
TTITLE10=Quien Va A Saber
EXTD=
EXTT0=
EXTT1=
EXTT2=
EXTT3=
EXTT4=
EXTT5=
EXTT6=
EXTT7=
EXTT8=
EXTT9=
EXTT10=
PLAYORDER=
